<svg xmlns="http://www.w3.org/2000/svg" width="231.76999999999998" height="35" viewBox="0 0 231.76999999999998 35"><rect class="svg__rect" x="0" y="0" width="88.08" height="35" fill="#5D9741"/><rect class="svg__rect" x="86.08" y="0" width="145.69" height="35" fill="#C1D72F"/><path class="svg__text" d="M15.70 22L14.22 22L14.22 13.47L17.48 13.47Q18.91 13.47 19.75 14.21Q20.59 14.96 20.59 16.18L20.59 16.18Q20.59 17.44 19.77 18.13Q18.95 18.83 17.46 18.83L17.46 18.83L15.70 18.83L15.70 22ZM15.70 14.66L15.70 17.64L17.48 17.64Q18.27 17.64 18.69 17.27Q19.10 16.90 19.10 16.19L19.10 16.19Q19.10 15.50 18.68 15.09Q18.26 14.68 17.52 14.66L17.52 14.66L15.70 14.66ZM26.91 18.86L24.05 13.47L25.70 13.47L27.66 17.51L29.62 13.47L31.26 13.47L28.40 18.86L28.40 22L26.91 22L26.91 18.86ZM36.86 14.66L34.22 14.66L34.22 13.47L40.99 13.47L40.99 14.66L38.33 14.66L38.33 22L36.86 22L36.86 14.66ZM46.23 22L44.74 22L44.74 13.47L46.23 13.47L46.23 17.02L50.04 17.02L50.04 13.47L51.52 13.47L51.52 22L50.04 22L50.04 18.21L46.23 18.21L46.23 22ZM55.99 18.00L55.99 18.00L55.99 17.52Q55.99 16.28 56.43 15.32Q56.87 14.37 57.68 13.86Q58.48 13.35 59.53 13.35Q60.57 13.35 61.38 13.85Q62.18 14.35 62.62 15.29Q63.06 16.23 63.07 17.48L63.07 17.48L63.07 17.96Q63.07 19.21 62.63 20.16Q62.20 21.10 61.39 21.61Q60.59 22.12 59.54 22.12L59.54 22.12Q58.50 22.12 57.69 21.61Q56.88 21.10 56.44 20.17Q55.99 19.23 55.99 18.00ZM57.47 17.46L57.47 17.96Q57.47 19.36 58.02 20.13Q58.57 20.90 59.54 20.90L59.54 20.90Q60.52 20.90 61.05 20.15Q61.58 19.40 61.58 17.96L61.58 17.96L61.58 17.51Q61.58 16.09 61.05 15.34Q60.51 14.58 59.53 14.58L59.53 14.58Q58.57 14.58 58.02 15.33Q57.48 16.09 57.47 17.46L57.47 17.46ZM69.01 22L67.53 22L67.53 13.47L69.01 13.47L72.83 19.54L72.83 13.47L74.30 13.47L74.30 22L72.82 22L69.01 15.95L69.01 22Z" fill="#FFFFFF"/><path class="svg__text" d="M99.68 21.24L99.68 21.24L100.46 19.49Q101.02 19.86 101.77 20.09Q102.51 20.32 103.23 20.32L103.23 20.32Q104.60 20.32 104.60 19.64L104.60 19.64Q104.60 19.28 104.21 19.11Q103.82 18.93 102.96 18.74L102.96 18.74Q102.01 18.53 101.37 18.30Q100.74 18.06 100.28 17.55Q99.83 17.03 99.83 16.16L99.83 16.16Q99.83 15.39 100.25 14.77Q100.67 14.15 101.50 13.79Q102.34 13.43 103.54 13.43L103.54 13.43Q104.37 13.43 105.18 13.62Q105.98 13.80 106.60 14.17L106.60 14.17L105.86 15.93Q104.66 15.28 103.53 15.28L103.53 15.28Q102.82 15.28 102.50 15.49Q102.18 15.70 102.18 16.04L102.18 16.04Q102.18 16.37 102.56 16.54Q102.95 16.71 103.80 16.89L103.80 16.89Q104.76 17.10 105.39 17.33Q106.02 17.56 106.48 18.07Q106.94 18.58 106.94 19.46L106.94 19.46Q106.94 20.21 106.52 20.83Q106.10 21.44 105.26 21.80Q104.42 22.17 103.22 22.17L103.22 22.17Q102.20 22.17 101.24 21.92Q100.28 21.67 99.68 21.24ZM111.09 17.80L111.09 17.80Q111.09 16.55 111.69 15.55Q112.30 14.56 113.36 14.00Q114.42 13.43 115.75 13.43L115.75 13.43Q117.08 13.43 118.15 14.00Q119.21 14.56 119.82 15.55Q120.42 16.55 120.42 17.80L120.42 17.80Q120.42 19.22 119.65 20.30Q118.88 21.39 117.57 21.85L117.57 21.85Q117.81 22.12 118.04 22.23Q118.27 22.33 118.55 22.33L118.55 22.33Q119.26 22.33 119.83 21.75L119.83 21.75L120.86 22.97Q120.44 23.49 119.83 23.76Q119.22 24.03 118.50 24.03L118.50 24.03Q117.80 24.03 117.24 23.85Q116.68 23.67 116.11 23.25Q115.54 22.84 114.83 22.09L114.83 22.09Q113.74 21.91 112.89 21.31Q112.03 20.72 111.56 19.81Q111.09 18.89 111.09 17.80ZM113.49 17.80L113.49 17.80Q113.49 18.51 113.79 19.05Q114.09 19.60 114.61 19.90Q115.12 20.20 115.75 20.20L115.75 20.20Q116.39 20.20 116.91 19.90Q117.42 19.60 117.72 19.05Q118.02 18.51 118.02 17.80L118.02 17.80Q118.02 17.09 117.72 16.54Q117.42 16 116.91 15.70Q116.39 15.40 115.75 15.40L115.75 15.40Q115.12 15.40 114.60 15.70Q114.09 16 113.79 16.54Q113.49 17.09 113.49 17.80ZM131.54 22L125.15 22L125.15 13.60L127.53 13.60L127.53 20.11L131.54 20.11L131.54 22ZM137.38 22L134.95 22L138.66 13.60L141.00 13.60L144.72 22L142.25 22L141.59 20.37L138.04 20.37L137.38 22ZM139.81 15.93L138.73 18.61L140.89 18.61L139.81 15.93ZM155.26 22L148.87 22L148.87 13.60L151.25 13.60L151.25 20.11L155.26 20.11L155.26 22ZM159.25 17.80L159.25 17.80Q159.25 16.54 159.85 15.54Q160.44 14.55 161.50 13.99Q162.55 13.43 163.87 13.43L163.87 13.43Q165.02 13.43 165.94 13.84Q166.87 14.25 167.48 15.02L167.48 15.02L165.97 16.39Q165.15 15.40 163.99 15.40L163.99 15.40Q163.30 15.40 162.77 15.70Q162.24 16 161.94 16.54Q161.64 17.09 161.64 17.80L161.64 17.80Q161.64 18.51 161.94 19.05Q162.24 19.60 162.77 19.90Q163.30 20.20 163.99 20.20L163.99 20.20Q165.15 20.20 165.97 19.22L165.97 19.22L167.48 20.58Q166.87 21.35 165.95 21.76Q165.02 22.17 163.87 22.17L163.87 22.17Q162.55 22.17 161.50 21.61Q160.44 21.05 159.85 20.05Q159.25 19.06 159.25 17.80ZM174.39 22L172.02 22L172.02 13.60L174.39 13.60L174.39 16.76L177.64 16.76L177.64 13.60L180.01 13.60L180.01 22L177.64 22L177.64 18.72L174.39 18.72L174.39 22ZM191.91 22L185.17 22L185.17 13.60L191.76 13.60L191.76 15.44L187.53 15.44L187.53 16.85L191.26 16.85L191.26 18.63L187.53 18.63L187.53 20.17L191.91 20.17L191.91 22ZM198.92 22L196.72 22L196.72 13.60L198.68 13.60L201.63 18.45L204.51 13.60L206.46 13.60L206.49 22L204.31 22L204.28 17.55L202.12 21.17L201.07 21.17L198.92 17.67L198.92 22ZM213.78 18.95L210.57 13.60L213.08 13.60L215.07 16.94L217.06 13.60L219.37 13.60L216.15 18.99L216.15 22L213.78 22L213.78 18.95Z" fill="#FFFFFF" x="99.08"/></svg>